<svg xmlns="http://www.w3.org/2000/svg" width="200" height="75" viewBox="0 0 200 75"><rect width="100%" height="100%" fill="#DDDDDD"/><path fill="#999999" d="M48.255 45.145h5.75q.62 0 .99.34.36.35.36.93v2.29h-15.38v-1.27q0-.39.17-.81.16-.43.52-.77l6.8-6.82q.85-.87 1.53-1.66.67-.79 1.12-1.57.45-.77.69-1.57t.24-1.68q0-.81-.23-1.42t-.66-1.03-1.02-.63q-.6-.21-1.34-.21-.69 0-1.27.2-.58.19-1.03.54t-.76.81q-.31.47-.46 1.03-.27.71-.68.94-.42.23-1.21.11l-2.02-.36q.23-1.61.9-2.83.67-1.21 1.67-2.03 1-.81 2.29-1.22 1.3-.41 2.78-.41 1.55 0 2.84.46 1.29.45 2.2 1.29.92.84 1.43 2.02.51 1.17.51 2.62 0 1.23-.37 2.29-.36 1.05-.97 2.01t-1.44 1.86q-.82.9-1.72 1.83l-5.05 5.16q.73-.21 1.45-.33.72-.11 1.37-.11m25.73-7.65q0 2.93-.63 5.1-.62 2.16-1.73 3.57t-2.62 2.1-3.26.69q-1.76 0-3.25-.69-1.5-.69-2.6-2.1t-1.72-3.57q-.62-2.17-.62-5.1 0-2.94.62-5.1.62-2.15 1.72-3.56t2.6-2.1q1.49-.69 3.25-.69 1.75 0 3.26.69t2.62 2.1 1.73 3.56q.63 2.16.63 5.1m-3.95 0q0-2.43-.36-4.03-.35-1.59-.95-2.54-.6-.94-1.37-1.32-.78-.38-1.61-.38t-1.59.38q-.77.38-1.36 1.32-.59.95-.94 2.54-.35 1.6-.35 4.03 0 2.44.35 4.03.35 1.6.94 2.55.59.94 1.36 1.32.76.38 1.59.38t1.61-.38q.77-.38 1.37-1.32.6-.95.95-2.55.36-1.59.36-4.03m21.93 0q0 2.93-.63 5.1-.62 2.16-1.73 3.57t-2.62 2.1-3.26.69q-1.76 0-3.25-.69-1.5-.69-2.6-2.1t-1.72-3.57q-.62-2.17-.62-5.1 0-2.94.62-5.1.62-2.15 1.72-3.56t2.6-2.1q1.49-.69 3.25-.69 1.75 0 3.26.69t2.62 2.1 1.73 3.56q.63 2.16.63 5.1m-3.95 0q0-2.43-.36-4.03-.35-1.59-.95-2.54-.6-.94-1.37-1.32-.78-.38-1.61-.38t-1.59.38q-.77.38-1.36 1.32-.59.95-.94 2.54-.35 1.6-.35 4.03 0 2.44.35 4.03.35 1.6.94 2.55.59.94 1.36 1.32.76.38 1.59.38t1.61-.38q.77-.38 1.37-1.32.6-.95.95-2.55.36-1.59.36-4.03m28.57 6.08-2.03 2-5.26-5.26-5.3 5.29-2.03-2 5.3-5.32-5.05-5.05 2.01-2.01 5.06 5.05 5.02-5.02 2.04 2.01-5.03 5.04zm10.64-17.28h15.49v1.66q0 .74-.16 1.2-.15.45-.31.76l-8.49 17.49q-.26.54-.74.92t-1.29.38h-2.78l8.67-17.13q.29-.52.58-.97.29-.44.64-.84h-10.72q-.36 0-.62-.26-.27-.27-.27-.62zm23.63 3.47-.79 4.66q.74-.15 1.42-.22t1.32-.07q1.77 0 3.11.53 1.35.52 2.27 1.45.91.93 1.38 2.18.46 1.25.46 2.69 0 1.78-.63 3.26-.62 1.47-1.74 2.51-1.12 1.05-2.64 1.62-1.53.58-3.33.58-1.05 0-2-.22-.94-.22-1.77-.58t-1.54-.84q-.7-.47-1.26-1l1.18-1.62q.37-.53.98-.53.38 0 .79.25.4.24.92.54.52.29 1.22.54.71.25 1.7.25 1.05 0 1.86-.34t1.34-.95q.54-.62.81-1.46.27-.85.27-1.84 0-1.83-1.06-2.86-1.07-1.03-3.14-1.03-1.6 0-3.27.59l-2.39-.68 1.86-10.88h11.07v1.62q0 .83-.51 1.34-.52.51-1.74.51z"/></svg>